<svg width="70" height="66" viewBox="0 0 70 66" fill="none" xmlns="http://www.w3.org/2000/svg">
<g clip-path="url(#clip0_49_18)">
<path d="M35.2689 4.27637L31.3236 19H35.0003V25H29.7161L27.0296 35.0273C25.6905 40.0248 21.1614 43.5 15.9876 43.5C8.47145 43.4999 3.00126 36.3704 4.9466 29.1104L5.22199 28.0791C6.65707 22.7237 11.5107 19 17.055 19H25.1126L29.4739 2.72363L35.2689 4.27637ZM58.012 0C65.5283 0 70.9994 7.1295 69.054 14.3896L68.7777 15.4209C67.3426 20.7761 62.4898 24.4998 56.9456 24.5H48.888L44.5267 40.7764L38.7308 39.2236L42.6761 24.5H39.0003V18.5H44.2835L46.971 8.47266C48.31 3.47531 52.8384 0.000201552 58.012 0ZM17.055 25C14.2262 25 11.75 26.9004 11.0179 29.6328L10.7415 30.6631C9.81727 34.1124 12.4166 37.4999 15.9876 37.5C18.4457 37.5 20.5975 35.849 21.2337 33.4746L23.5052 25H17.055ZM58.012 6C55.5541 6.0002 53.4031 7.65123 52.7669 10.0254L50.4954 18.5H56.9456C59.7743 18.4998 62.2506 16.5995 62.9827 13.8672L63.2581 12.8369C64.1824 9.38749 61.5831 6 58.012 6Z" fill="#590202"/>
<path d="M63.2638 65.3C62.4838 65.3 61.8238 65.1533 61.2838 64.86C60.7438 64.56 60.3338 64.1633 60.0538 63.67C59.7805 63.1767 59.6438 62.6333 59.6438 62.04C59.6438 61.52 59.7305 61.0533 59.9038 60.64C60.0771 60.22 60.3438 59.86 60.7038 59.56C61.0638 59.2533 61.5305 59.0033 62.1038 58.81C62.5371 58.67 63.0438 58.5433 63.6238 58.43C64.2105 58.3167 64.8438 58.2133 65.5238 58.12C66.2105 58.02 66.9271 57.9133 67.6738 57.8L66.8138 58.29C66.8205 57.5433 66.6538 56.9933 66.3138 56.64C65.9738 56.2867 65.4005 56.11 64.5938 56.11C64.1071 56.11 63.6371 56.2233 63.1838 56.45C62.7305 56.6767 62.4138 57.0667 62.2338 57.62L60.0338 56.93C60.3005 56.0167 60.8071 55.2833 61.5538 54.73C62.3071 54.1767 63.3205 53.9 64.5938 53.9C65.5538 53.9 66.3971 54.0567 67.1238 54.37C67.8571 54.6833 68.4005 55.1967 68.7538 55.91C68.9471 56.29 69.0638 56.68 69.1038 57.08C69.1438 57.4733 69.1638 57.9033 69.1638 58.37V65H67.0538V62.66L67.4038 63.04C66.9171 63.82 66.3471 64.3933 65.6938 64.76C65.0471 65.12 64.2371 65.3 63.2638 65.3ZM63.7438 63.38C64.2905 63.38 64.7571 63.2833 65.1438 63.09C65.5305 62.8967 65.8371 62.66 66.0638 62.38C66.2971 62.1 66.4538 61.8367 66.5338 61.59C66.6605 61.2833 66.7305 60.9333 66.7438 60.54C66.7638 60.14 66.7738 59.8167 66.7738 59.57L67.5138 59.79C66.7871 59.9033 66.1638 60.0033 65.6438 60.09C65.1238 60.1767 64.6771 60.26 64.3038 60.34C63.9305 60.4133 63.6005 60.4967 63.3138 60.59C63.0338 60.69 62.7971 60.8067 62.6038 60.94C62.4105 61.0733 62.2605 61.2267 62.1538 61.4C62.0538 61.5733 62.0038 61.7767 62.0038 62.01C62.0038 62.2767 62.0705 62.5133 62.2038 62.72C62.3371 62.92 62.5305 63.08 62.7838 63.2C63.0438 63.32 63.3638 63.38 63.7438 63.38Z" fill="#590202"/>
<path d="M55.1941 65V59.8C55.1941 59.46 55.1708 59.0833 55.1241 58.67C55.0774 58.2567 54.9674 57.86 54.7941 57.48C54.6274 57.0933 54.3741 56.7767 54.0341 56.53C53.7008 56.2833 53.2474 56.16 52.6741 56.16C52.3674 56.16 52.0641 56.21 51.7641 56.31C51.4641 56.41 51.1908 56.5833 50.9441 56.83C50.7041 57.07 50.5108 57.4033 50.3641 57.83C50.2174 58.25 50.1441 58.79 50.1441 59.45L48.7141 58.84C48.7141 57.92 48.8908 57.0867 49.2441 56.34C49.6041 55.5933 50.1308 55 50.8241 54.56C51.5174 54.1133 52.3708 53.89 53.3841 53.89C54.1841 53.89 54.8441 54.0233 55.3641 54.29C55.8841 54.5567 56.2974 54.8967 56.6041 55.31C56.9108 55.7233 57.1374 56.1633 57.2841 56.63C57.4308 57.0967 57.5241 57.54 57.5641 57.96C57.6108 58.3733 57.6341 58.71 57.6341 58.97V65H55.1941ZM47.7041 65V54.2H49.8541V57.55H50.1441V65H47.7041Z" fill="#590202"/>
<path d="M39.2546 65.31C38.4546 65.31 37.7946 65.1767 37.2746 64.91C36.7546 64.6433 36.3413 64.3033 36.0346 63.89C35.728 63.4767 35.5013 63.0367 35.3546 62.57C35.208 62.1033 35.1113 61.6633 35.0646 61.25C35.0246 60.83 35.0046 60.49 35.0046 60.23V54.2H37.4446V59.4C37.4446 59.7333 37.468 60.11 37.5146 60.53C37.5613 60.9433 37.668 61.3433 37.8346 61.73C38.008 62.11 38.2613 62.4233 38.5946 62.67C38.9346 62.9167 39.3913 63.04 39.9646 63.04C40.2713 63.04 40.5746 62.99 40.8746 62.89C41.1746 62.79 41.4446 62.62 41.6846 62.38C41.9313 62.1333 42.128 61.7967 42.2746 61.37C42.4213 60.9433 42.4946 60.4033 42.4946 59.75L43.9246 60.36C43.9246 61.28 43.7446 62.1133 43.3846 62.86C43.0313 63.6067 42.508 64.2033 41.8146 64.65C41.1213 65.09 40.268 65.31 39.2546 65.31ZM42.7846 65V61.65H42.4946V54.2H44.9146V65H42.7846Z" fill="#590202"/>
<path d="M24.4229 65L24.4429 50.6H26.8829V59.4L30.8329 54.2H33.8428L29.6529 59.6L34.2029 65H31.0129L26.8829 59.8V65H24.4229Z" fill="#590202"/>
<path d="M15.9396 65.3C15.1596 65.3 14.4996 65.1533 13.9596 64.86C13.4196 64.56 13.0096 64.1633 12.7296 63.67C12.4562 63.1767 12.3196 62.6333 12.3196 62.04C12.3196 61.52 12.4062 61.0533 12.5796 60.64C12.7529 60.22 13.0196 59.86 13.3796 59.56C13.7396 59.2533 14.2062 59.0033 14.7796 58.81C15.2129 58.67 15.7196 58.5433 16.2996 58.43C16.8862 58.3167 17.5196 58.2133 18.1996 58.12C18.8862 58.02 19.6029 57.9133 20.3496 57.8L19.4896 58.29C19.4962 57.5433 19.3296 56.9933 18.9896 56.64C18.6496 56.2867 18.0762 56.11 17.2696 56.11C16.7829 56.11 16.3129 56.2233 15.8596 56.45C15.4062 56.6767 15.0896 57.0667 14.9096 57.62L12.7096 56.93C12.9762 56.0167 13.4829 55.2833 14.2296 54.73C14.9829 54.1767 15.9962 53.9 17.2696 53.9C18.2296 53.9 19.0729 54.0567 19.7996 54.37C20.5329 54.6833 21.0762 55.1967 21.4296 55.91C21.6229 56.29 21.7396 56.68 21.7796 57.08C21.8196 57.4733 21.8396 57.9033 21.8396 58.37V65H19.7296V62.66L20.0796 63.04C19.5929 63.82 19.0229 64.3933 18.3696 64.76C17.7229 65.12 16.9129 65.3 15.9396 65.3ZM16.4196 63.38C16.9662 63.38 17.4329 63.2833 17.8196 63.09C18.2062 62.8967 18.5129 62.66 18.7396 62.38C18.9729 62.1 19.1296 61.8367 19.2096 61.59C19.3362 61.2833 19.4062 60.9333 19.4196 60.54C19.4396 60.14 19.4496 59.8167 19.4496 59.57L20.1896 59.79C19.4629 59.9033 18.8396 60.0033 18.3196 60.09C17.7996 60.1767 17.3529 60.26 16.9796 60.34C16.6062 60.4133 16.2762 60.4967 15.9896 60.59C15.7096 60.69 15.4729 60.8067 15.2796 60.94C15.0862 61.0733 14.9362 61.2267 14.8296 61.4C14.7296 61.5733 14.6796 61.7767 14.6796 62.01C14.6796 62.2767 14.7462 62.5133 14.8796 62.72C15.0129 62.92 15.2062 63.08 15.4596 63.2C15.7196 63.32 16.0396 63.38 16.4196 63.38Z" fill="#590202"/>
<path d="M7.86988 65V59.8C7.86988 59.46 7.84655 59.0833 7.79988 58.67C7.75322 58.2567 7.64322 57.86 7.46988 57.48C7.30322 57.0933 7.04988 56.7767 6.70988 56.53C6.37655 56.2833 5.92322 56.16 5.34988 56.16C5.04322 56.16 4.73988 56.21 4.43988 56.31C4.13988 56.41 3.86655 56.5833 3.61988 56.83C3.37988 57.07 3.18655 57.4033 3.03988 57.83C2.89322 58.25 2.81988 58.79 2.81988 59.45L1.38988 58.84C1.38988 57.92 1.56655 57.0867 1.91988 56.34C2.27988 55.5933 2.80655 55 3.49988 54.56C4.19322 54.1133 5.04655 53.89 6.05988 53.89C6.85988 53.89 7.51988 54.0233 8.03988 54.29C8.55988 54.5567 8.97322 54.8967 9.27988 55.31C9.58655 55.7233 9.81322 56.1633 9.95988 56.63C10.1066 57.0967 10.1999 57.54 10.2399 57.96C10.2865 58.3733 10.3099 58.71 10.3099 58.97V65H7.86988ZM0.379883 65V50.6H2.52988V58.18H2.81988V65H0.379883Z" fill="#590202"/>
</g>
<defs>
<clipPath id="clip0_49_18">
<rect width="70" height="66" fill="white"/>
</clipPath>
</defs>
</svg>
