<svg width="120" height="30" viewBox="0 0 120 30" fill="none" xmlns="http://www.w3.org/2000/svg">
<path d="M20.8261 2.94922L18.1513 13.1034H20.6441V17.2414H17.0615L15.2401 24.1568C14.3323 27.6033 11.2616 30 7.7539 30C2.65812 29.9999 -1.05054 25.0831 0.268355 20.0761L0.455063 19.3649C1.42801 15.6715 4.71864 13.1035 8.47756 13.1034H13.9404L16.8973 1.87837L20.8261 2.94922ZM36.2455 0C41.3413 0 45.0506 4.9169 43.7317 9.9239L43.5443 10.6351C42.5713 14.3283 39.2813 16.8964 35.5225 16.8966H30.0596L27.1027 28.1216L23.1732 27.0508L25.8481 16.8966H23.356V12.7586H26.9379L28.7599 5.84321C29.6678 2.39676 32.7379 0.000139001 36.2455 0ZM8.47756 17.2414C6.55972 17.2414 4.88092 18.552 4.38455 20.4364L4.19718 21.147C3.57055 23.5258 5.33285 25.862 7.7539 25.8621C9.42045 25.8621 10.8793 24.7234 11.3106 23.0859L12.8506 17.2414H8.47756ZM36.2455 4.13793C34.5791 4.13807 33.1207 5.27671 32.6894 6.91406L31.1494 12.7586H35.5225C37.4402 12.7585 39.1191 11.4479 39.6155 9.56358L39.8022 8.85304C40.4288 6.47413 38.6666 4.13793 36.2455 4.13793Z" fill="#590202"/>
<path d="M112.264 24.3C111.484 24.3 110.824 24.1533 110.284 23.86C109.744 23.56 109.334 23.1633 109.054 22.67C108.78 22.1767 108.644 21.6333 108.644 21.04C108.644 20.52 108.73 20.0533 108.904 19.64C109.077 19.22 109.344 18.86 109.704 18.56C110.064 18.2533 110.53 18.0033 111.104 17.81C111.537 17.67 112.044 17.5433 112.624 17.43C113.21 17.3167 113.844 17.2133 114.524 17.12C115.21 17.02 115.927 16.9133 116.674 16.8L115.814 17.29C115.82 16.5433 115.654 15.9933 115.314 15.64C114.974 15.2867 114.4 15.11 113.594 15.11C113.107 15.11 112.637 15.2233 112.184 15.45C111.73 15.6767 111.414 16.0667 111.234 16.62L109.034 15.93C109.3 15.0167 109.807 14.2833 110.554 13.73C111.307 13.1767 112.32 12.9 113.594 12.9C114.554 12.9 115.397 13.0567 116.124 13.37C116.857 13.6833 117.4 14.1967 117.754 14.91C117.947 15.29 118.064 15.68 118.104 16.08C118.144 16.4733 118.164 16.9033 118.164 17.37V24H116.054V21.66L116.404 22.04C115.917 22.82 115.347 23.3933 114.694 23.76C114.047 24.12 113.237 24.3 112.264 24.3ZM112.744 22.38C113.29 22.38 113.757 22.2833 114.144 22.09C114.53 21.8967 114.837 21.66 115.064 21.38C115.297 21.1 115.454 20.8367 115.534 20.59C115.66 20.2833 115.73 19.9333 115.744 19.54C115.764 19.14 115.774 18.8167 115.774 18.57L116.514 18.79C115.787 18.9033 115.164 19.0033 114.644 19.09C114.124 19.1767 113.677 19.26 113.304 19.34C112.93 19.4133 112.6 19.4967 112.314 19.59C112.034 19.69 111.797 19.8067 111.604 19.94C111.41 20.0733 111.26 20.2267 111.154 20.4C111.054 20.5733 111.004 20.7767 111.004 21.01C111.004 21.2767 111.07 21.5133 111.204 21.72C111.337 21.92 111.53 22.08 111.784 22.2C112.044 22.32 112.364 22.38 112.744 22.38Z" fill="#590202"/>
<path d="M104.194 24V18.8C104.194 18.46 104.171 18.0833 104.124 17.67C104.077 17.2567 103.967 16.86 103.794 16.48C103.627 16.0933 103.374 15.7767 103.034 15.53C102.701 15.2833 102.247 15.16 101.674 15.16C101.367 15.16 101.064 15.21 100.764 15.31C100.464 15.41 100.191 15.5833 99.9441 15.83C99.7041 16.07 99.5108 16.4033 99.3641 16.83C99.2174 17.25 99.1441 17.79 99.1441 18.45L97.7141 17.84C97.7141 16.92 97.8908 16.0867 98.2441 15.34C98.6041 14.5933 99.1308 14 99.8241 13.56C100.517 13.1133 101.371 12.89 102.384 12.89C103.184 12.89 103.844 13.0233 104.364 13.29C104.884 13.5567 105.297 13.8967 105.604 14.31C105.911 14.7233 106.137 15.1633 106.284 15.63C106.431 16.0967 106.524 16.54 106.564 16.96C106.611 17.3733 106.634 17.71 106.634 17.97V24H104.194ZM96.7041 24V13.2H98.8541V16.55H99.1441V24H96.7041Z" fill="#590202"/>
<path d="M88.2546 24.31C87.4546 24.31 86.7946 24.1767 86.2746 23.91C85.7546 23.6433 85.3413 23.3033 85.0346 22.89C84.728 22.4767 84.5013 22.0367 84.3546 21.57C84.208 21.1033 84.1113 20.6633 84.0646 20.25C84.0246 19.83 84.0046 19.49 84.0046 19.23V13.2H86.4446V18.4C86.4446 18.7333 86.468 19.11 86.5146 19.53C86.5613 19.9433 86.668 20.3433 86.8346 20.73C87.008 21.11 87.2613 21.4233 87.5946 21.67C87.9346 21.9167 88.3913 22.04 88.9646 22.04C89.2713 22.04 89.5746 21.99 89.8746 21.89C90.1746 21.79 90.4446 21.62 90.6846 21.38C90.9313 21.1333 91.128 20.7967 91.2746 20.37C91.4213 19.9433 91.4946 19.4033 91.4946 18.75L92.9246 19.36C92.9246 20.28 92.7446 21.1133 92.3846 21.86C92.0313 22.6067 91.508 23.2033 90.8146 23.65C90.1213 24.09 89.268 24.31 88.2546 24.31ZM91.7846 24V20.65H91.4946V13.2H93.9146V24H91.7846Z" fill="#590202"/>
<path d="M73.4229 24L73.4429 9.6H75.8829V18.4L79.8329 13.2H82.8428L78.6529 18.6L83.2029 24H80.0129L75.8829 18.8V24H73.4229Z" fill="#590202"/>
<path d="M64.9396 24.3C64.1596 24.3 63.4996 24.1533 62.9596 23.86C62.4196 23.56 62.0096 23.1633 61.7296 22.67C61.4562 22.1767 61.3196 21.6333 61.3196 21.04C61.3196 20.52 61.4062 20.0533 61.5796 19.64C61.7529 19.22 62.0196 18.86 62.3796 18.56C62.7396 18.2533 63.2062 18.0033 63.7796 17.81C64.2129 17.67 64.7196 17.5433 65.2996 17.43C65.8862 17.3167 66.5196 17.2133 67.1996 17.12C67.8862 17.02 68.6029 16.9133 69.3496 16.8L68.4896 17.29C68.4962 16.5433 68.3296 15.9933 67.9896 15.64C67.6496 15.2867 67.0762 15.11 66.2696 15.11C65.7829 15.11 65.3129 15.2233 64.8596 15.45C64.4062 15.6767 64.0896 16.0667 63.9096 16.62L61.7096 15.93C61.9762 15.0167 62.4829 14.2833 63.2296 13.73C63.9829 13.1767 64.9962 12.9 66.2696 12.9C67.2296 12.9 68.0729 13.0567 68.7996 13.37C69.5329 13.6833 70.0762 14.1967 70.4296 14.91C70.6229 15.29 70.7396 15.68 70.7796 16.08C70.8196 16.4733 70.8396 16.9033 70.8396 17.37V24H68.7296V21.66L69.0796 22.04C68.5929 22.82 68.0229 23.3933 67.3696 23.76C66.7229 24.12 65.9129 24.3 64.9396 24.3ZM65.4196 22.38C65.9662 22.38 66.4329 22.2833 66.8196 22.09C67.2062 21.8967 67.5129 21.66 67.7396 21.38C67.9729 21.1 68.1296 20.8367 68.2096 20.59C68.3362 20.2833 68.4062 19.9333 68.4196 19.54C68.4396 19.14 68.4496 18.8167 68.4496 18.57L69.1896 18.79C68.4629 18.9033 67.8396 19.0033 67.3196 19.09C66.7996 19.1767 66.3529 19.26 65.9796 19.34C65.6062 19.4133 65.2762 19.4967 64.9896 19.59C64.7096 19.69 64.4729 19.8067 64.2796 19.94C64.0862 20.0733 63.9362 20.2267 63.8296 20.4C63.7296 20.5733 63.6796 20.7767 63.6796 21.01C63.6796 21.2767 63.7462 21.5133 63.8796 21.72C64.0129 21.92 64.2062 22.08 64.4596 22.2C64.7196 22.32 65.0396 22.38 65.4196 22.38Z" fill="#590202"/>
<path d="M56.8699 24V18.8C56.8699 18.46 56.8465 18.0833 56.7999 17.67C56.7532 17.2567 56.6432 16.86 56.4699 16.48C56.3032 16.0933 56.0499 15.7767 55.7099 15.53C55.3765 15.2833 54.9232 15.16 54.3499 15.16C54.0432 15.16 53.7399 15.21 53.4399 15.31C53.1399 15.41 52.8665 15.5833 52.6199 15.83C52.3799 16.07 52.1865 16.4033 52.0399 16.83C51.8932 17.25 51.8199 17.79 51.8199 18.45L50.3899 17.84C50.3899 16.92 50.5665 16.0867 50.9199 15.34C51.2799 14.5933 51.8065 14 52.4999 13.56C53.1932 13.1133 54.0465 12.89 55.0599 12.89C55.8599 12.89 56.5199 13.0233 57.0399 13.29C57.5599 13.5567 57.9732 13.8967 58.2799 14.31C58.5865 14.7233 58.8132 15.1633 58.9599 15.63C59.1066 16.0967 59.1999 16.54 59.2399 16.96C59.2865 17.3733 59.3099 17.71 59.3099 17.97V24H56.8699ZM49.3799 24V9.6H51.5299V17.18H51.8199V24H49.3799Z" fill="#590202"/>
</svg>
